<mxfile host="app.diagrams.net" modified="2024-05-29T12:21:20.094Z" agent="Mozilla/5.0 (Windows NT 10.0; Win64; x64) AppleWebKit/537.36 (KHTML, like Gecko) Chrome/125.0.0.0 Safari/537.36" etag="gXKpPcxPb_EQAbkrT21i" version="24.4.9" type="github">
  <diagram name="第 1 页" id="wquMzjkhSTpwU5VkIrm8">
    <mxGraphModel dx="764" dy="779" grid="0" gridSize="10" guides="1" tooltips="1" connect="1" arrows="1" fold="1" page="1" pageScale="1" pageWidth="827" pageHeight="1169" math="0" shadow="0">
      <root>
        <mxCell id="0" />
        <mxCell id="1" parent="0" />
        <mxCell id="zK-1zT0JZoPDnPSMRM30-23" value="" style="endArrow=classic;html=1;rounded=0;" edge="1" parent="1">
          <mxGeometry width="50" height="50" relative="1" as="geometry">
            <mxPoint x="335" y="353" as="sourcePoint" />
            <mxPoint x="443" y="325" as="targetPoint" />
          </mxGeometry>
        </mxCell>
        <mxCell id="zK-1zT0JZoPDnPSMRM30-24" value="" style="endArrow=classic;html=1;rounded=0;" edge="1" parent="1">
          <mxGeometry width="50" height="50" relative="1" as="geometry">
            <mxPoint x="335" y="353" as="sourcePoint" />
            <mxPoint x="487" y="404" as="targetPoint" />
          </mxGeometry>
        </mxCell>
        <mxCell id="zK-1zT0JZoPDnPSMRM30-25" value="" style="endArrow=classic;html=1;rounded=0;" edge="1" parent="1">
          <mxGeometry width="50" height="50" relative="1" as="geometry">
            <mxPoint x="335" y="352" as="sourcePoint" />
            <mxPoint x="335" y="470" as="targetPoint" />
          </mxGeometry>
        </mxCell>
        <mxCell id="zK-1zT0JZoPDnPSMRM30-26" value="Z" style="text;html=1;align=center;verticalAlign=middle;resizable=0;points=[];autosize=1;strokeColor=none;fillColor=none;" vertex="1" parent="1">
          <mxGeometry x="455" y="304" width="25" height="26" as="geometry" />
        </mxCell>
        <mxCell id="zK-1zT0JZoPDnPSMRM30-27" value="X" style="text;html=1;align=center;verticalAlign=middle;resizable=0;points=[];autosize=1;strokeColor=none;fillColor=none;" vertex="1" parent="1">
          <mxGeometry x="513" y="398" width="26" height="26" as="geometry" />
        </mxCell>
        <mxCell id="zK-1zT0JZoPDnPSMRM30-28" value="Y" style="text;html=1;align=center;verticalAlign=middle;resizable=0;points=[];autosize=1;strokeColor=none;fillColor=none;" vertex="1" parent="1">
          <mxGeometry x="322" y="482" width="26" height="26" as="geometry" />
        </mxCell>
        <mxCell id="zK-1zT0JZoPDnPSMRM30-29" value="ORB" style="text;html=1;align=center;verticalAlign=middle;resizable=0;points=[];autosize=1;strokeColor=none;fillColor=none;" vertex="1" parent="1">
          <mxGeometry x="375" y="245" width="44" height="26" as="geometry" />
        </mxCell>
        <mxCell id="zK-1zT0JZoPDnPSMRM30-30" value="" style="endArrow=classic;html=1;rounded=0;" edge="1" parent="1">
          <mxGeometry width="50" height="50" relative="1" as="geometry">
            <mxPoint x="417" y="707" as="sourcePoint" />
            <mxPoint x="307" y="739" as="targetPoint" />
          </mxGeometry>
        </mxCell>
        <mxCell id="zK-1zT0JZoPDnPSMRM30-31" value="" style="endArrow=classic;html=1;rounded=0;" edge="1" parent="1">
          <mxGeometry width="50" height="50" relative="1" as="geometry">
            <mxPoint x="417" y="707" as="sourcePoint" />
            <mxPoint x="520" y="743" as="targetPoint" />
          </mxGeometry>
        </mxCell>
        <mxCell id="zK-1zT0JZoPDnPSMRM30-32" value="" style="endArrow=classic;html=1;rounded=0;" edge="1" parent="1">
          <mxGeometry width="50" height="50" relative="1" as="geometry">
            <mxPoint x="417" y="706" as="sourcePoint" />
            <mxPoint x="417" y="600" as="targetPoint" />
          </mxGeometry>
        </mxCell>
        <mxCell id="zK-1zT0JZoPDnPSMRM30-33" value="Z" style="text;html=1;align=center;verticalAlign=middle;resizable=0;points=[];autosize=1;strokeColor=none;fillColor=none;" vertex="1" parent="1">
          <mxGeometry x="264.5" y="738" width="25" height="26" as="geometry" />
        </mxCell>
        <mxCell id="zK-1zT0JZoPDnPSMRM30-34" value="Blender" style="text;html=1;align=center;verticalAlign=middle;resizable=0;points=[];autosize=1;strokeColor=none;fillColor=none;" vertex="1" parent="1">
          <mxGeometry x="286.5" y="579" width="59" height="26" as="geometry" />
        </mxCell>
        <mxCell id="zK-1zT0JZoPDnPSMRM30-35" value="X" style="text;html=1;align=center;verticalAlign=middle;resizable=0;points=[];autosize=1;strokeColor=none;fillColor=none;" vertex="1" parent="1">
          <mxGeometry x="534" y="748" width="26" height="26" as="geometry" />
        </mxCell>
        <mxCell id="zK-1zT0JZoPDnPSMRM30-36" value="" style="verticalLabelPosition=bottom;verticalAlign=top;html=1;shape=mxgraph.basic.sun" vertex="1" parent="1">
          <mxGeometry x="187" y="407" width="32" height="28" as="geometry" />
        </mxCell>
        <mxCell id="zK-1zT0JZoPDnPSMRM30-37" value="" style="endArrow=none;dashed=1;html=1;rounded=0;" edge="1" parent="1">
          <mxGeometry width="50" height="50" relative="1" as="geometry">
            <mxPoint x="230" y="395" as="sourcePoint" />
            <mxPoint x="299" y="365" as="targetPoint" />
          </mxGeometry>
        </mxCell>
        <mxCell id="zK-1zT0JZoPDnPSMRM30-38" value="" style="endArrow=none;dashed=1;html=1;rounded=0;" edge="1" parent="1">
          <mxGeometry width="50" height="50" relative="1" as="geometry">
            <mxPoint x="243" y="413" as="sourcePoint" />
            <mxPoint x="312" y="383" as="targetPoint" />
          </mxGeometry>
        </mxCell>
        <mxCell id="zK-1zT0JZoPDnPSMRM30-39" value="" style="endArrow=none;dashed=1;html=1;rounded=0;" edge="1" parent="1">
          <mxGeometry width="50" height="50" relative="1" as="geometry">
            <mxPoint x="253" y="431" as="sourcePoint" />
            <mxPoint x="322" y="401" as="targetPoint" />
          </mxGeometry>
        </mxCell>
        <mxCell id="zK-1zT0JZoPDnPSMRM30-40" value="Y" style="text;html=1;align=center;verticalAlign=middle;resizable=0;points=[];autosize=1;strokeColor=none;fillColor=none;" vertex="1" parent="1">
          <mxGeometry x="377" y="591" width="26" height="26" as="geometry" />
        </mxCell>
        <mxCell id="zK-1zT0JZoPDnPSMRM30-41" value="" style="verticalLabelPosition=bottom;verticalAlign=top;html=1;shape=mxgraph.basic.sun" vertex="1" parent="1">
          <mxGeometry x="197" y="757" width="32" height="28" as="geometry" />
        </mxCell>
        <mxCell id="zK-1zT0JZoPDnPSMRM30-42" value="" style="endArrow=none;dashed=1;html=1;dashPattern=1 3;strokeWidth=2;rounded=0;" edge="1" parent="1">
          <mxGeometry width="50" height="50" relative="1" as="geometry">
            <mxPoint x="233" y="741" as="sourcePoint" />
            <mxPoint x="302" y="709" as="targetPoint" />
          </mxGeometry>
        </mxCell>
        <mxCell id="zK-1zT0JZoPDnPSMRM30-43" value="" style="endArrow=none;dashed=1;html=1;dashPattern=1 3;strokeWidth=2;rounded=0;" edge="1" parent="1">
          <mxGeometry width="50" height="50" relative="1" as="geometry">
            <mxPoint x="243" y="754" as="sourcePoint" />
            <mxPoint x="315" y="724" as="targetPoint" />
          </mxGeometry>
        </mxCell>
        <mxCell id="zK-1zT0JZoPDnPSMRM30-44" value="" style="endArrow=none;dashed=1;html=1;dashPattern=1 3;strokeWidth=2;rounded=0;" edge="1" parent="1">
          <mxGeometry width="50" height="50" relative="1" as="geometry">
            <mxPoint x="254" y="770" as="sourcePoint" />
            <mxPoint x="324" y="742" as="targetPoint" />
          </mxGeometry>
        </mxCell>
        <mxCell id="zK-1zT0JZoPDnPSMRM30-45" value="Camera" style="text;html=1;align=center;verticalAlign=middle;resizable=0;points=[];autosize=1;strokeColor=none;fillColor=none;" vertex="1" parent="1">
          <mxGeometry x="121" y="719" width="61" height="26" as="geometry" />
        </mxCell>
        <mxCell id="zK-1zT0JZoPDnPSMRM30-46" value="" style="endArrow=none;dashed=1;html=1;rounded=0;" edge="1" parent="1">
          <mxGeometry width="50" height="50" relative="1" as="geometry">
            <mxPoint x="419" y="706" as="sourcePoint" />
            <mxPoint x="657" y="633" as="targetPoint" />
          </mxGeometry>
        </mxCell>
      </root>
    </mxGraphModel>
  </diagram>
</mxfile>
